<?xml version="1.0" encoding="UTF-8"?>
<!-- Generated by Pixelmator Pro 3.3.12 -->
<svg width="512" height="512" viewBox="0 0 512 512" xmlns="http://www.w3.org/2000/svg">
    <g id="Group">
        <g id="g1">
            <path id="Path" fill="#e2e8f0" stroke="none" d="M 256 0 C 247.716003 0 241 6.716003 241 15 L 241 47 C 241 55.283997 247.716003 62 256 62 C 264.283997 62 271 55.283997 271 47 L 271 15 C 271 6.716003 264.283997 0 256 0 Z"/>
        </g>
    </g>
    <g id="g2">
        <g id="g3">
            <path id="path1" fill="#e2e8f0" stroke="none" d="M 256 450 C 247.716003 450 241 456.716003 241 465 L 241 497 C 241 505.283997 247.716003 512 256 512 C 264.283997 512 271 505.283997 271 497 L 271 465 C 271 456.716003 264.283997 450 256 450 Z"/>
        </g>
    </g>
    <g id="g4">
        <g id="g5">
            <path id="path2" fill="#e2e8f0" stroke="none" d="M 119.528999 98.315002 L 96.901001 75.687012 C 91.042999 69.830017 81.544998 69.830017 75.688004 75.687012 C 69.830002 81.544983 69.830002 91.042999 75.688004 96.899994 L 98.316002 119.528015 C 101.244003 122.457001 105.083 123.921997 108.921997 123.921997 C 112.761002 123.921997 116.599998 122.457001 119.528999 119.528015 C 125.387001 113.669983 125.387001 104.171997 119.528999 98.315002 Z"/>
        </g>
    </g>
    <g id="g6">
        <g id="g7">
            <path id="path3" fill="#e2e8f0" stroke="none" d="M 436.312988 415.098999 L 413.684998 392.471008 C 407.826996 386.614014 398.32901 386.614014 392.471985 392.471008 C 386.614014 398.32901 386.614014 407.826996 392.471985 413.68399 L 415.100006 436.312012 C 418.028015 439.240997 421.867004 440.705994 425.705994 440.705994 C 429.545013 440.705994 433.384003 439.240997 436.312988 436.312012 C 442.17099 430.45401 442.17099 420.955994 436.312988 415.098999 Z"/>
        </g>
    </g>
    <g id="g8">
        <g id="g9">
            <path id="path4" fill="#e2e8f0" stroke="none" d="M 47 241 L 15 241 C 6.716 241 0 247.716003 0 256 C 0 264.283997 6.716 271 15 271 L 47 271 C 55.284 271 62 264.283997 62 256 C 62 247.716003 55.284 241 47 241 Z"/>
        </g>
    </g>
    <g id="g10">
        <g id="g11">
            <path id="path5" fill="#e2e8f0" stroke="none" d="M 497 241 L 465 241 C 456.716003 241 450 247.716003 450 256 C 450 264.283997 456.716003 271 465 271 L 497 271 C 505.283997 271 512 264.283997 512 256 C 512 247.716003 505.283997 241 497 241 Z"/>
        </g>
    </g>
    <g id="g12">
        <g id="g13">
            <path id="path6" fill="#e2e8f0" stroke="none" d="M 119.528999 392.471008 C 113.670998 386.614014 104.172997 386.614014 98.316002 392.471008 L 75.688004 415.098999 C 69.830002 420.957001 69.830002 430.454987 75.688004 436.312012 C 78.615997 439.240997 82.455002 440.705994 86.293999 440.705994 C 90.133003 440.705994 93.972 439.240997 96.900002 436.312988 L 119.528999 413.68399 C 125.387001 407.825989 125.387001 398.328003 119.528999 392.471008 Z"/>
        </g>
    </g>
    <g id="g14">
        <g id="g15">
            <path id="path7" fill="#e2e8f0" stroke="none" d="M 436.312988 75.687988 C 430.454987 69.830994 420.957001 69.830994 415.100006 75.687988 L 392.471985 98.315002 C 386.614014 104.173004 386.614014 113.67099 392.471985 119.528015 C 395.399994 122.457001 399.239014 123.921997 403.078003 123.921997 C 406.916992 123.921997 410.756012 122.457001 413.684998 119.528992 L 436.312988 96.901001 C 442.17099 91.042999 442.17099 81.544983 436.312988 75.687988 Z"/>
        </g>
    </g>
    <g id="g16">
        <g id="g17">
            <path id="path8" fill="#e2e8f0" stroke="none" d="M 256 97 C 168.326996 97 97 168.326996 97 256 C 97 343.673004 168.326996 415 256 415 C 343.673004 415 415 343.673004 415 256 C 415 168.326996 343.673004 97 256 97 Z M 271 384.122986 L 271 127.877014 C 335.088989 135.333008 385 189.942993 385 256 C 385 322.057007 335.088989 376.666992 271 384.122986 Z"/>
        </g>
    </g>
    <g id="g18"/>
    <g id="g19"/>
    <g id="g20"/>
    <g id="g21"/>
    <g id="g22"/>
    <g id="g23"/>
    <g id="g24"/>
    <g id="g25"/>
    <g id="g26"/>
    <g id="g27"/>
    <g id="g28"/>
    <g id="g29"/>
    <g id="g30"/>
    <g id="g31"/>
    <g id="g32"/>
</svg>
