<?xml version="1.0" encoding="UTF-8"?>
<!-- Generated by Pixelmator Pro 3.3.12 -->
<svg width="6000" height="1000" viewBox="0 0 6000 1000" xmlns="http://www.w3.org/2000/svg">
    <g id="Group">
        <path id="Path" fill="#0f172a" stroke="none" d="M 1193.839966 680.02002 L 1158.089966 648.199951 C 1145.48999 636.97998 1125.97998 638.23999 1115.199951 651.22998 C 1076.77002 697.51001 1023.320007 718.670044 963.919983 718.670044 C 852.320007 718.670044 754.22998 634.069946 754.22998 499.079956 C 754.22998 365.880005 854.119995 281.280029 963.919983 281.280029 C 1025.700073 281.280029 1077.530029 307.780029 1115.449951 352.819946 C 1126.040039 365.390015 1144.660034 367.319946 1157.430054 356.969971 L 1196.300049 325.469971 C 1209.180054 315.030029 1211.23999 296.060059 1200.709961 283.26001 C 1142.089966 211.959961 1057.410034 175.97998 963.919983 175.97998 C 796.530029 175.97998 643.530029 304.680054 643.530029 499.079956 C 643.530029 695.27002 794.72998 823.969971 962.119995 823.969971 C 1053.939941 823.969971 1136.219971 790.959961 1196.380005 722.300049 C 1207.27002 709.869995 1206.180054 691 1193.839966 680.02002 Z"/>
        <path id="path1" fill="#0f172a" stroke="none" d="M 1548.030029 175.97998 C 1378.829956 175.97998 1227.630005 305.579956 1227.630005 499.969971 C 1227.630005 696.170044 1378.829956 823.969971 1548.030029 823.969971 C 1716.319946 823.969971 1868.420044 696.170044 1868.420044 499.969971 C 1868.420044 305.579956 1716.319946 175.97998 1548.030029 175.97998 Z M 1548.030029 718.670044 C 1436.430054 718.670044 1338.329956 634.969971 1338.329956 499.969971 C 1338.329956 366.780029 1436.430054 281.280029 1548.030029 281.280029 C 1658.72998 281.280029 1757.719971 366.780029 1757.719971 499.969971 C 1757.719971 634.969971 1658.72998 718.670044 1548.030029 718.670044 Z"/>
        <path id="path2" fill="#0f172a" stroke="none" d="M 2105.120117 184.97998 L 1934.420044 184.97998 C 1917.849976 184.97998 1904.420044 198.410034 1904.420044 214.97998 L 1904.420044 256.680054 C 1904.420044 273.23999 1917.849976 286.680054 1934.420044 286.680054 L 1937.839966 286.680054 C 1955.920044 286.680054 1969.890015 302.550049 1967.599976 320.47998 L 1908.73999 781.170044 C 1906.449951 799.099976 1920.420044 814.969971 1938.48999 814.969971 L 2105.120117 814.969971 C 2297.719971 814.969971 2399.409912 651.170044 2399.409912 490.969971 C 2399.409912 336.180054 2304.919922 184.97998 2105.120117 184.97998 Z M 2106.02002 713.27002 L 2059.050049 713.27002 C 2040.98999 713.27002 2027.02002 697.430054 2029.290039 679.51001 L 2075.699951 312.910034 C 2077.590088 297.920044 2090.350098 286.680054 2105.459961 286.680054 L 2106.02002 286.680054 C 2231.120117 286.680054 2288.719971 386.579956 2288.719971 490.079956 C 2288.719971 599.869995 2223.919922 713.27002 2106.02002 713.27002 Z"/>
        <path id="path3" fill="#0f172a" stroke="none" d="M 2595.01001 286.680054 L 2826.610107 286.680054 C 2843.179932 286.680054 2856.610107 273.23999 2856.610107 256.680054 L 2856.610107 214.97998 C 2856.610107 198.410034 2843.179932 184.97998 2826.610107 184.97998 L 2487.909912 184.97998 C 2471.350098 184.97998 2457.909912 198.410034 2457.909912 214.97998 L 2457.909912 784.969971 C 2457.909912 801.540039 2471.350098 814.969971 2487.909912 814.969971 L 2826.610107 814.969971 C 2843.179932 814.969971 2856.610107 801.540039 2856.610107 784.969971 L 2856.610107 743.27002 C 2856.610107 726.699951 2843.179932 713.27002 2826.610107 713.27002 L 2595.01001 713.27002 C 2578.449951 713.27002 2565.01001 699.839966 2565.01001 683.27002 L 2565.01001 575.880005 C 2565.01001 559.310059 2578.449951 545.880005 2595.01001 545.880005 L 2766.310059 545.880005 C 2782.879883 545.880005 2796.310059 532.439941 2796.310059 515.880005 L 2796.310059 474.180054 C 2796.310059 457.609985 2782.879883 444.180054 2766.310059 444.180054 L 2595.01001 444.180054 C 2578.449951 444.180054 2565.01001 430.73999 2565.01001 414.180054 L 2565.01001 316.680054 C 2565.01001 300.109985 2578.449951 286.680054 2595.01001 286.680054 Z"/>
        <path id="path4" fill="#0f172a" stroke="none" d="M 3413.879883 674.47998 L 3375.01001 642.97998 C 3362.23999 632.630005 3343.610107 634.560059 3333.030029 647.130005 C 3295.110107 692.170044 3243.27002 718.670044 3181.5 718.670044 C 3071.699951 718.670044 2971.800049 634.069946 2971.800049 500.880005 C 2971.800049 365.880005 3069.899902 281.280029 3181.5 281.280029 C 3240.899902 281.280029 3294.350098 302.439941 3332.780029 348.719971 C 3343.560059 361.709961 3363.060059 362.969971 3375.669922 351.75 L 3411.409912 319.930054 C 3423.76001 308.939941 3424.840088 290.079956 3413.949951 277.650024 C 3353.790039 208.98999 3271.51001 175.97998 3179.699951 175.97998 C 3012.300049 175.97998 2861.100098 304.680054 2861.100098 500.880005 C 2861.100098 695.27002 3011.399902 823.969971 3181.5 823.969971 C 3274.98999 823.969971 3359.669922 787.98999 3418.290039 716.689941 C 3428.810059 703.890015 3426.75 684.920044 3413.879883 674.47998 Z"/>
        <path id="path5" fill="#0f172a" stroke="none" d="M 3726.639893 545.880005 L 3602.800049 545.880005 C 3597.280029 545.880005 3592.800049 541.400024 3592.800049 535.880005 L 3592.800049 528.880005 C 3592.800049 523.359985 3597.280029 518.880005 3602.800049 518.880005 L 3722.399902 518.880005 C 3843 518.880005 3903.300049 434.280029 3903.300049 351.47998 C 3903.300049 268.680054 3842.100098 184.97998 3718.800049 184.97998 L 3515.699951 184.97998 C 3499.129883 184.97998 3485.699951 198.410034 3485.699951 214.97998 L 3485.699951 784.969971 C 3485.699951 801.540039 3499.129883 814.969971 3515.699951 814.969971 L 3562.800049 814.969971 C 3579.370117 814.969971 3592.800049 801.540039 3592.800049 784.969971 L 3592.800049 677.569946 C 3592.800049 661.01001 3606.22998 647.569946 3622.800049 647.569946 L 3648.350098 647.569946 C 3661.800049 647.569946 3673.610107 656.530029 3677.23999 669.47998 L 3712.909912 796.790039 L 3712.919922 796.790039 L 3712.919922 796.790039 C 3715.330078 805.410034 3723.189941 811.369995 3732.139893 811.369995 L 3848.100098 811.369995 C 3864.669922 811.369995 3878.100098 797.939941 3878.100098 781.369995 L 3878.100098 743.27002 C 3878.100098 726.699951 3864.669922 713.27002 3848.100098 713.27002 L 3818.959961 713.27002 C 3805.5 713.27002 3793.689941 704.310059 3790.070068 691.349976 L 3755.530029 567.800049 C 3751.909912 554.839966 3740.090088 545.880005 3726.639893 545.880005 Z M 3592.800049 316.680054 C 3592.800049 300.109985 3606.22998 286.680054 3622.800049 286.680054 L 3719.699951 286.680054 C 3768.300049 286.680054 3792.600098 319.079956 3792.600098 351.47998 C 3792.600098 384.780029 3768.300049 417.180054 3719.699951 417.180054 L 3622.800049 417.180054 C 3606.22998 417.180054 3592.800049 403.73999 3592.800049 387.180054 L 3592.800049 316.680054 Z"/>
        <path id="path6" fill="#0f172a" stroke="none" d="M 4309.47998 184.97998 C 4292.910156 184.97998 4279.47998 198.410034 4279.47998 214.97998 L 4279.47998 607.969971 C 4279.47998 677.27002 4227.290039 718.670044 4169.689941 718.670044 C 4105.790039 718.670044 4059.889893 680.869995 4059.889893 605.27002 L 4059.889893 214.97998 C 4059.889893 198.410034 4046.459961 184.97998 4029.889893 184.97998 L 3982.790039 184.97998 C 3966.219971 184.97998 3952.790039 198.410034 3952.790039 214.97998 L 3952.790039 616.969971 C 3952.790039 740.27002 4048.189941 823.969971 4147.189941 823.969971 C 4210.189941 823.969971 4257.879883 797.869995 4279.47998 761.869995 L 4279.47998 784.969971 C 4279.47998 801.540039 4292.910156 814.969971 4309.47998 814.969971 L 4356.580078 814.969971 C 4373.149902 814.969971 4386.580078 801.540039 4386.580078 784.969971 L 4386.580078 214.97998 C 4386.580078 198.410034 4373.149902 184.97998 4356.580078 184.97998 L 4309.47998 184.97998 Z"/>
        <path id="path7" fill="#0f172a" stroke="none" d="M 4716.879883 470.280029 L 4630.47998 427.079956 C 4587.279785 405.47998 4571.97998 378.47998 4571.97998 347.880005 C 4571.97998 311.880005 4595.379883 279.47998 4645.779785 279.47998 C 4683.209961 279.47998 4722.5 303.76001 4751.75 344.550049 C 4761.669922 358.380005 4781.220215 360.97998 4794.589844 350.430054 L 4832.029785 320.869995 C 4844.589844 310.949951 4847.209961 292.880005 4837.859863 279.890015 C 4790.220215 213.650024 4728.140137 175.97998 4645.779785 175.97998 C 4536.879883 175.97998 4462.180176 258.780029 4462.180176 355.079956 C 4462.180176 441.47998 4523.379883 498.170044 4580.080078 526.969971 L 4661.080078 567.469971 C 4699.779785 587.27002 4722.279785 611.569946 4722.279785 648.469971 C 4722.279785 688.969971 4691.680176 720.469971 4644.879883 720.469971 C 4605.140137 720.469971 4566.600098 693.98999 4538.609863 658.25 C 4528.339844 645.130005 4509.410156 642.780029 4496.330078 653.099976 L 4458.189941 683.209961 C 4445.310059 693.380005 4443.029785 711.98999 4452.97998 725.030029 C 4499.77002 786.369995 4563.97998 823.959961 4643.080078 823.959961 C 4757.379883 823.959961 4832.080078 745.660034 4832.080078 643.959961 C 4832.080078 554.869995 4778.080078 500.880005 4716.879883 470.280029 Z"/>
        <path id="path8" fill="#0f172a" stroke="none" d="M 5247.879883 214.97998 L 5247.879883 414.180054 C 5247.879883 430.75 5234.450195 444.180054 5217.879883 444.180054 L 5087.529785 444.180054 C 5068.259766 444.180054 5053.97998 426.27002 5058.290039 407.47998 L 5100.870117 221.680054 C 5105.180176 202.890015 5090.899902 184.97998 5071.629883 184.97998 L 5026.089844 184.97998 C 5012.100098 184.97998 4999.970215 194.650024 4996.850098 208.280029 L 4948.129883 420.880005 C 4945.009766 434.51001 4932.870117 444.180054 4918.890137 444.180054 L 4888.189941 444.180054 C 4871.620117 444.180054 4858.189941 457.609985 4858.189941 474.180054 L 4858.189941 515.880005 C 4858.189941 532.449951 4871.620117 545.880005 4888.189941 545.880005 L 4906.859863 545.880005 C 4913.279785 545.880005 4918.029785 551.839966 4916.609863 558.099976 L 4866.529785 778.319946 C 4862.259766 797.089966 4876.529785 814.969971 4895.779785 814.969971 L 4941.350098 814.969971 C 4955.359863 814.969971 4967.5 805.280029 4970.600098 791.619995 L 5021.180176 569.219971 C 5024.290039 555.560059 5036.430176 545.869995 5050.430176 545.869995 L 5217.890137 545.869995 C 5234.459961 545.869995 5247.890137 559.300049 5247.890137 575.869995 L 5247.890137 784.959961 C 5247.890137 801.530029 5261.319824 814.959961 5277.890137 814.959961 L 5324.97998 814.959961 C 5341.549805 814.959961 5354.97998 801.530029 5354.97998 784.959961 L 5354.97998 214.969971 C 5354.97998 198.400024 5341.549805 184.969971 5324.97998 184.969971 L 5277.890137 184.969971 C 5261.310059 184.97998 5247.879883 198.410034 5247.879883 214.97998 Z"/>
    </g>
</svg>
